<svg width="344" height="121" viewBox="0 0 344 121" fill="none" xmlns="http://www.w3.org/2000/svg">
<rect width="344" height="121" rx="6" fill="white"/>
<path d="M13.8222 32V20.1H18.6332C19.3699 20.1 20.0159 20.2303 20.5712 20.491C21.1379 20.7403 21.5799 21.103 21.8972 21.579C22.2145 22.0437 22.3732 22.6047 22.3732 23.262V23.449C22.3732 24.231 22.1862 24.8487 21.8122 25.302C21.4382 25.7553 20.9962 26.0613 20.4862 26.22V26.458C20.8942 26.4693 21.2285 26.6053 21.4892 26.866C21.7612 27.1153 21.8972 27.495 21.8972 28.005V32H20.4862V28.175C20.4862 27.835 20.3899 27.5743 20.1972 27.393C20.0159 27.2117 19.7382 27.121 19.3642 27.121H15.2502V32H13.8222ZM15.2502 25.829H18.4972C19.2792 25.829 19.8799 25.642 20.2992 25.268C20.7299 24.8827 20.9452 24.35 20.9452 23.67V23.551C20.9452 22.871 20.7355 22.344 20.3162 21.97C19.8969 21.5847 19.2905 21.392 18.4972 21.392H15.2502V25.829ZM28.0658 32.238C27.2272 32.238 26.4905 32.0623 25.8558 31.711C25.2212 31.3483 24.7282 30.844 24.3768 30.198C24.0255 29.552 23.8498 28.804 23.8498 27.954V27.75C23.8498 26.8887 24.0255 26.135 24.3768 25.489C24.7282 24.843 25.2155 24.3443 25.8388 23.993C26.4622 23.6303 27.1762 23.449 27.9808 23.449C28.7628 23.449 29.4542 23.619 30.0548 23.959C30.6555 24.2877 31.1258 24.7637 31.4658 25.387C31.8058 26.0103 31.9758 26.7413 31.9758 27.58V28.192H25.1928C25.2268 29.0873 25.5158 29.79 26.0598 30.3C26.6038 30.7987 27.2838 31.048 28.0998 31.048C28.8138 31.048 29.3635 30.8837 29.7488 30.555C30.1342 30.2263 30.4288 29.8353 30.6328 29.382L31.7888 29.943C31.6188 30.2943 31.3808 30.6457 31.0748 30.997C30.7802 31.3483 30.3892 31.643 29.9018 31.881C29.4258 32.119 28.8138 32.238 28.0658 32.238ZM25.2098 27.087H30.6158C30.5705 26.3163 30.3042 25.7157 29.8168 25.285C29.3408 24.8543 28.7288 24.639 27.9808 24.639C27.2215 24.639 26.5982 24.8543 26.1108 25.285C25.6235 25.7157 25.3232 26.3163 25.2098 27.087ZM37.8034 32.238C36.9987 32.238 36.2734 32.068 35.6274 31.728C34.9927 31.3767 34.4884 30.878 34.1144 30.232C33.7517 29.586 33.5704 28.821 33.5704 27.937V27.75C33.5704 26.8547 33.7517 26.0897 34.1144 25.455C34.4884 24.809 34.9927 24.316 35.6274 23.976C36.2734 23.6247 36.9987 23.449 37.8034 23.449C38.5967 23.449 39.271 23.5963 39.8264 23.891C40.393 24.1857 40.835 24.5767 41.1524 25.064C41.481 25.5513 41.6907 26.0727 41.7814 26.628L40.4724 26.9C40.4157 26.492 40.2797 26.118 40.0644 25.778C39.8604 25.438 39.5714 25.166 39.1974 24.962C38.8234 24.758 38.3644 24.656 37.8204 24.656C37.265 24.656 36.7664 24.7807 36.3244 25.03C35.8937 25.2793 35.548 25.6363 35.2874 26.101C35.038 26.5657 34.9134 27.121 34.9134 27.767V27.92C34.9134 28.566 35.038 29.1213 35.2874 29.586C35.548 30.0507 35.8937 30.4077 36.3244 30.657C36.7664 30.9063 37.265 31.031 37.8204 31.031C38.6477 31.031 39.2767 30.8157 39.7074 30.385C40.1494 29.9543 40.4214 29.4217 40.5234 28.787L41.8494 29.076C41.7247 29.62 41.498 30.1357 41.1694 30.623C40.8407 31.1103 40.393 31.5013 39.8264 31.796C39.271 32.0907 38.5967 32.238 37.8034 32.238ZM47.6405 32.238C46.8019 32.238 46.0595 32.0623 45.4135 31.711C44.7789 31.3597 44.2802 30.8667 43.9175 30.232C43.5662 29.586 43.3905 28.8267 43.3905 27.954V27.733C43.3905 26.8717 43.5662 26.118 43.9175 25.472C44.2802 24.826 44.7789 24.3273 45.4135 23.976C46.0595 23.6247 46.8019 23.449 47.6405 23.449C48.4792 23.449 49.2159 23.6247 49.8505 23.976C50.4965 24.3273 50.9952 24.826 51.3465 25.472C51.7092 26.118 51.8905 26.8717 51.8905 27.733V27.954C51.8905 28.8267 51.7092 29.586 51.3465 30.232C50.9952 30.8667 50.4965 31.3597 49.8505 31.711C49.2159 32.0623 48.4792 32.238 47.6405 32.238ZM47.6405 31.031C48.5245 31.031 49.2272 30.7533 49.7485 30.198C50.2812 29.6313 50.5475 28.872 50.5475 27.92V27.767C50.5475 26.815 50.2812 26.0613 49.7485 25.506C49.2272 24.9393 48.5245 24.656 47.6405 24.656C46.7679 24.656 46.0652 24.9393 45.5325 25.506C44.9999 26.0613 44.7335 26.815 44.7335 27.767V27.92C44.7335 28.872 44.9999 29.6313 45.5325 30.198C46.0652 30.7533 46.7679 31.031 47.6405 31.031ZM53.9673 32V23.687H55.2763V24.707H55.5143C55.6616 24.3443 55.8883 24.078 56.1943 23.908C56.5003 23.738 56.9026 23.653 57.4013 23.653H58.3873V24.877H57.3163C56.7156 24.877 56.2283 25.047 55.8543 25.387C55.4916 25.7157 55.3103 26.2313 55.3103 26.934V32H53.9673ZM63.2557 32.238C62.5417 32.238 61.8844 32.068 61.2837 31.728C60.683 31.388 60.207 30.895 59.8557 30.249C59.5044 29.603 59.3287 28.838 59.3287 27.954V27.733C59.3287 26.849 59.5044 26.0897 59.8557 25.455C60.207 24.809 60.6774 24.316 61.2667 23.976C61.8674 23.6247 62.5304 23.449 63.2557 23.449C63.8337 23.449 64.321 23.5283 64.7177 23.687C65.1257 23.8343 65.4544 24.027 65.7037 24.265C65.953 24.4917 66.1457 24.7353 66.2817 24.996H66.5197V20.1H67.8627V32H66.5537V30.623H66.3157C66.089 31.0423 65.7377 31.4163 65.2617 31.745C64.7857 32.0737 64.117 32.238 63.2557 32.238ZM63.6127 31.048C64.474 31.048 65.171 30.776 65.7037 30.232C66.2477 29.6767 66.5197 28.906 66.5197 27.92V27.767C66.5197 26.781 66.2477 26.016 65.7037 25.472C65.171 24.9167 64.474 24.639 63.6127 24.639C62.7627 24.639 62.06 24.9167 61.5047 25.472C60.9607 26.016 60.6887 26.781 60.6887 27.767V27.92C60.6887 28.906 60.9607 29.6767 61.5047 30.232C62.06 30.776 62.7627 31.048 63.6127 31.048ZM70.3371 32V23.687H71.6801V32H70.3371ZM71.0171 22.395C70.7224 22.395 70.4731 22.2987 70.2691 22.106C70.0764 21.9133 69.9801 21.6697 69.9801 21.375C69.9801 21.069 70.0764 20.8197 70.2691 20.627C70.4731 20.4343 70.7224 20.338 71.0171 20.338C71.3118 20.338 71.5554 20.4343 71.7481 20.627C71.9408 20.8197 72.0371 21.069 72.0371 21.375C72.0371 21.6697 71.9408 21.9133 71.7481 22.106C71.5554 22.2987 71.3118 22.395 71.0171 22.395ZM74.1641 32V23.687H75.4731V25.098H75.7111C75.8924 24.7013 76.1984 24.3443 76.6291 24.027C77.0711 23.6983 77.7171 23.534 78.5671 23.534C79.1904 23.534 79.7458 23.6643 80.2331 23.925C80.7318 24.1857 81.1284 24.571 81.4231 25.081C81.7178 25.591 81.8651 26.22 81.8651 26.968V32H80.5221V27.07C80.5221 26.2427 80.3124 25.642 79.8931 25.268C79.4851 24.894 78.9298 24.707 78.2271 24.707C77.4224 24.707 76.7651 24.9677 76.2551 25.489C75.7564 26.0103 75.5071 26.7867 75.5071 27.818V32H74.1641ZM83.8419 27.886V27.648C83.8419 26.7753 84.0175 26.0273 84.3689 25.404C84.7202 24.7807 85.1962 24.299 85.7969 23.959C86.3975 23.619 87.0549 23.449 87.7689 23.449C88.6415 23.449 89.3102 23.619 89.7749 23.959C90.2509 24.2877 90.6022 24.656 90.8289 25.064H91.0669V23.687H92.3419V33.938C92.3419 34.3913 92.2172 34.7483 91.9679 35.009C91.7185 35.2697 91.3559 35.4 90.8799 35.4H85.2359V34.21H90.5229C90.8629 34.21 91.0329 34.04 91.0329 33.7V30.538H90.7949C90.6589 30.7873 90.4662 31.031 90.2169 31.269C89.9675 31.507 89.6445 31.7053 89.2479 31.864C88.8512 32.0113 88.3582 32.085 87.7689 32.085C87.0549 32.085 86.3975 31.915 85.7969 31.575C85.1962 31.235 84.7202 30.7533 84.3689 30.13C84.0175 29.4953 83.8419 28.7473 83.8419 27.886ZM88.1259 30.895C88.9872 30.895 89.6842 30.623 90.2169 30.079C90.7609 29.535 91.0329 28.787 91.0329 27.835V27.699C91.0329 26.7357 90.7609 25.9877 90.2169 25.455C89.6842 24.911 88.9872 24.639 88.1259 24.639C87.2759 24.639 86.5732 24.911 86.0179 25.455C85.4739 25.9877 85.2019 26.7357 85.2019 27.699V27.835C85.2019 28.787 85.4739 29.535 86.0179 30.079C86.5732 30.623 87.2759 30.895 88.1259 30.895ZM101.801 32V21.018H101.546L99.2343 25.251H97.7383L100.577 20.1H103.178V32H101.801Z" fill="#021931"/>
<path d="M15.4036 56.0994C14.9348 56.0994 14.517 56.0189 14.15 55.858C13.7855 55.697 13.4954 55.4732 13.28 55.1868C13.0669 54.898 12.9509 54.563 12.932 54.1818H13.8269C13.8458 54.4162 13.9263 54.6186 14.0684 54.7891C14.2104 54.9571 14.3962 55.0874 14.6259 55.1797C14.8555 55.272 15.11 55.3182 15.3894 55.3182C15.7019 55.3182 15.9789 55.2637 16.2203 55.1548C16.4618 55.0459 16.6512 54.8944 16.7885 54.7003C16.9258 54.5062 16.9945 54.2812 16.9945 54.0256C16.9945 53.758 16.9282 53.5225 16.7956 53.3189C16.6631 53.1129 16.4689 52.9519 16.2132 52.8359C15.9576 52.7199 15.6451 52.6619 15.2757 52.6619H14.6934V51.8807H15.2757C15.5646 51.8807 15.8179 51.8286 16.0357 51.7244C16.2559 51.6203 16.4275 51.4735 16.5506 51.2841C16.6761 51.0947 16.7388 50.8722 16.7388 50.6165C16.7388 50.3703 16.6844 50.156 16.5755 49.9737C16.4666 49.7914 16.3127 49.6494 16.1138 49.5476C15.9173 49.4458 15.6853 49.3949 15.4178 49.3949C15.1668 49.3949 14.9301 49.4411 14.7076 49.5334C14.4874 49.6233 14.3075 49.7547 14.1678 49.9276C14.0281 50.098 13.9524 50.304 13.9405 50.5455H13.0882C13.1025 50.1643 13.2173 49.8305 13.4327 49.544C13.6481 49.2552 13.9299 49.0303 14.2779 48.8693C14.6283 48.7083 15.013 48.6278 15.432 48.6278C15.8818 48.6278 16.2677 48.719 16.5897 48.9013C16.9116 49.0812 17.159 49.3191 17.3319 49.6151C17.5047 49.911 17.5911 50.2306 17.5911 50.5739C17.5911 50.9834 17.4834 51.3326 17.2679 51.6214C17.0549 51.9103 16.7649 52.1103 16.3979 52.2216V52.2784C16.8572 52.3542 17.2158 52.5495 17.4739 52.8643C17.7319 53.1768 17.861 53.5639 17.861 54.0256C17.861 54.4209 17.7533 54.776 17.5378 55.0909C17.3248 55.4034 17.0336 55.6496 16.6642 55.8295C16.2949 56.0095 15.8747 56.0994 15.4036 56.0994ZM25.0378 48.7273H25.9185V53.9261C25.9185 54.3902 25.8333 54.7843 25.6628 55.1087C25.4924 55.433 25.2521 55.6792 24.9419 55.8473C24.6318 56.0154 24.266 56.0994 23.8446 56.0994C23.4469 56.0994 23.093 56.0272 22.7828 55.8828C22.4727 55.736 22.2289 55.5277 22.0513 55.2578C21.8738 54.9879 21.785 54.6671 21.785 54.2955H22.6515C22.6515 54.5014 22.7024 54.6813 22.8042 54.8352C22.9083 54.9867 23.0504 55.1051 23.2303 55.1903C23.4102 55.2756 23.615 55.3182 23.8446 55.3182C24.098 55.3182 24.3134 55.2649 24.4909 55.1584C24.6685 55.0518 24.8034 54.8956 24.8958 54.6896C24.9905 54.4813 25.0378 54.2268 25.0378 53.9261V48.7273ZM31.0073 53.7699V50.5455H31.8453V56H31.0073V55.0767H30.9505C30.8226 55.3537 30.6238 55.5893 30.3539 55.7834C30.084 55.9751 29.7431 56.071 29.3311 56.071C28.9902 56.071 28.6872 55.9964 28.4221 55.8473C28.1569 55.6958 27.9486 55.4685 27.7971 55.1655C27.6455 54.8601 27.5698 54.4754 27.5698 54.0114V50.5455H28.4078V53.9545C28.4078 54.3523 28.5191 54.6695 28.7417 54.9062C28.9666 55.143 29.253 55.2614 29.601 55.2614C29.8094 55.2614 30.0212 55.2081 30.2367 55.1016C30.4545 54.995 30.6368 54.8317 30.7836 54.6115C30.9327 54.3913 31.0073 54.1108 31.0073 53.7699ZM34.2184 48.7273V56H33.3803V48.7273H34.2184ZM38.5517 56V55.3608L40.9522 52.733C41.234 52.4252 41.466 52.1577 41.6483 51.9304C41.8306 51.7008 41.9655 51.4853 42.0531 51.2841C42.1431 51.0805 42.188 50.8674 42.188 50.6449C42.188 50.3892 42.1265 50.1679 42.0034 49.9808C41.8826 49.7938 41.7169 49.6494 41.5062 49.5476C41.2955 49.4458 41.0588 49.3949 40.796 49.3949C40.5166 49.3949 40.2728 49.4529 40.0645 49.5689C39.8585 49.6825 39.6987 49.8423 39.585 50.0483C39.4738 50.2543 39.4181 50.4957 39.4181 50.7727H38.5801C38.5801 50.3466 38.6783 49.9725 38.8748 49.6506C39.0713 49.3286 39.3388 49.0777 39.6774 48.8977C40.0183 48.7178 40.4006 48.6278 40.8244 48.6278C41.2505 48.6278 41.6281 48.7178 41.9572 48.8977C42.2863 49.0777 42.5443 49.3203 42.7314 49.6257C42.9184 49.9311 43.0119 50.2708 43.0119 50.6449C43.0119 50.9124 42.9634 51.174 42.8663 51.4297C42.7716 51.683 42.6059 51.9659 42.3691 52.2784C42.1348 52.5885 41.8092 52.9673 41.3926 53.4148L39.7591 55.1619V55.2188H43.1397V56H38.5517ZM46.9785 56.0994C46.4435 56.0994 45.9877 55.9538 45.6113 55.6626C45.2349 55.3691 44.9473 54.9441 44.7484 54.3878C44.5495 53.8291 44.4501 53.1544 44.4501 52.3636C44.4501 51.5777 44.5495 50.9065 44.7484 50.3501C44.9496 49.7914 45.2385 49.3653 45.6149 49.0717C45.9937 48.7758 46.4482 48.6278 46.9785 48.6278C47.5088 48.6278 47.9622 48.7758 48.3386 49.0717C48.7174 49.3653 49.0062 49.7914 49.2051 50.3501C49.4063 50.9065 49.5069 51.5777 49.5069 52.3636C49.5069 53.1544 49.4075 53.8291 49.2086 54.3878C49.0098 54.9441 48.7221 55.3691 48.3457 55.6626C47.9693 55.9538 47.5136 56.0994 46.9785 56.0994ZM46.9785 55.3182C47.5088 55.3182 47.9208 55.0625 48.2143 54.5511C48.5079 54.0398 48.6547 53.3106 48.6547 52.3636C48.6547 51.7339 48.5872 51.1977 48.4522 50.755C48.3197 50.3123 48.1279 49.9749 47.877 49.7429C47.6284 49.5109 47.3289 49.3949 46.9785 49.3949C46.4529 49.3949 46.0422 49.6541 45.7463 50.1726C45.4503 50.6887 45.3024 51.419 45.3024 52.3636C45.3024 52.9934 45.3687 53.5284 45.5012 53.9688C45.6338 54.4091 45.8244 54.7441 46.073 54.9737C46.3239 55.2034 46.6258 55.3182 46.9785 55.3182ZM50.8564 56V55.3608L53.2569 52.733C53.5386 52.4252 53.7707 52.1577 53.9529 51.9304C54.1352 51.7008 54.2702 51.4853 54.3578 51.2841C54.4477 51.0805 54.4927 50.8674 54.4927 50.6449C54.4927 50.3892 54.4312 50.1679 54.3081 49.9808C54.1873 49.7938 54.0216 49.6494 53.8109 49.5476C53.6002 49.4458 53.3635 49.3949 53.1007 49.3949C52.8213 49.3949 52.5775 49.4529 52.3691 49.5689C52.1632 49.6825 52.0034 49.8423 51.8897 50.0483C51.7785 50.2543 51.7228 50.4957 51.7228 50.7727H50.8848C50.8848 50.3466 50.983 49.9725 51.1795 49.6506C51.376 49.3286 51.6435 49.0777 51.9821 48.8977C52.323 48.7178 52.7053 48.6278 53.1291 48.6278C53.5552 48.6278 53.9328 48.7178 54.2619 48.8977C54.591 49.0777 54.849 49.3203 55.036 49.6257C55.2231 49.9311 55.3166 50.2708 55.3166 50.6449C55.3166 50.9124 55.2681 51.174 55.171 51.4297C55.0763 51.683 54.9106 51.9659 54.6738 52.2784C54.4395 52.5885 54.1139 52.9673 53.6973 53.4148L52.0637 55.1619V55.2188H55.4444V56H50.8564ZM59.4679 48.7273V56H58.5872V49.6506H58.5446L56.769 50.8295V49.9347L58.5872 48.7273H59.4679Z" fill="#566676"/>
<path d="M307.35 56.0994C306.815 56.0994 306.359 55.9538 305.982 55.6626C305.606 55.3691 305.318 54.9441 305.119 54.3878C304.921 53.8291 304.821 53.1544 304.821 52.3636C304.821 51.5777 304.921 50.9065 305.119 50.3501C305.321 49.7914 305.61 49.3653 305.986 49.0717C306.365 48.7758 306.819 48.6278 307.35 48.6278C307.88 48.6278 308.333 48.7758 308.71 49.0717C309.088 49.3653 309.377 49.7914 309.576 50.3501C309.777 50.9065 309.878 51.5777 309.878 52.3636C309.878 53.1544 309.779 53.8291 309.58 54.3878C309.381 54.9441 309.093 55.3691 308.717 55.6626C308.34 55.9538 307.885 56.0994 307.35 56.0994ZM307.35 55.3182C307.88 55.3182 308.292 55.0625 308.585 54.5511C308.879 54.0398 309.026 53.3106 309.026 52.3636C309.026 51.7339 308.958 51.1977 308.823 50.755C308.691 50.3123 308.499 49.9749 308.248 49.7429C307.999 49.5109 307.7 49.3949 307.35 49.3949C306.824 49.3949 306.413 49.6541 306.117 50.1726C305.821 50.6887 305.673 51.419 305.673 52.3636C305.673 52.9934 305.74 53.5284 305.872 53.9688C306.005 54.4091 306.195 54.7441 306.444 54.9737C306.695 55.2034 306.997 55.3182 307.35 55.3182ZM313.784 48.7273V56H312.904V49.6506H312.861L311.085 50.8295V49.9347L312.904 48.7273H313.784ZM316.501 55.0696C316.326 55.0696 316.175 55.0069 316.05 54.8814C315.924 54.7559 315.862 54.6056 315.862 54.4304C315.862 54.2552 315.924 54.1049 316.05 53.9794C316.175 53.8539 316.326 53.7912 316.501 53.7912C316.676 53.7912 316.826 53.8539 316.952 53.9794C317.077 54.1049 317.14 54.2552 317.14 54.4304C317.14 54.5464 317.11 54.6529 317.051 54.75C316.994 54.8471 316.918 54.9252 316.82 54.9844C316.726 55.0412 316.619 55.0696 316.501 55.0696ZM316.501 51.3906C316.326 51.3906 316.175 51.3279 316.05 51.2024C315.924 51.0769 315.862 50.9266 315.862 50.7514C315.862 50.5762 315.924 50.4259 316.05 50.3004C316.175 50.175 316.326 50.1122 316.501 50.1122C316.676 50.1122 316.826 50.175 316.952 50.3004C317.077 50.4259 317.14 50.5762 317.14 50.7514C317.14 50.8674 317.11 50.974 317.051 51.071C316.994 51.1681 316.918 51.2462 316.82 51.3054C316.726 51.3622 316.619 51.3906 316.501 51.3906ZM321.187 48.7273V56H320.306V49.6506H320.263L318.488 50.8295V49.9347L320.306 48.7273H321.187ZM325.65 56.0994C325.115 56.0994 324.66 55.9538 324.283 55.6626C323.907 55.3691 323.619 54.9441 323.42 54.3878C323.221 53.8291 323.122 53.1544 323.122 52.3636C323.122 51.5777 323.221 50.9065 323.42 50.3501C323.622 49.7914 323.91 49.3653 324.287 49.0717C324.666 48.7758 325.12 48.6278 325.65 48.6278C326.181 48.6278 326.634 48.7758 327.01 49.0717C327.389 49.3653 327.678 49.7914 327.877 50.3501C328.078 50.9065 328.179 51.5777 328.179 52.3636C328.179 53.1544 328.079 53.8291 327.881 54.3878C327.682 54.9441 327.394 55.3691 327.018 55.6626C326.641 55.9538 326.185 56.0994 325.65 56.0994ZM325.65 55.3182C326.181 55.3182 326.593 55.0625 326.886 54.5511C327.18 54.0398 327.327 53.3106 327.327 52.3636C327.327 51.7339 327.259 51.1977 327.124 50.755C326.992 50.3123 326.8 49.9749 326.549 49.7429C326.3 49.5109 326.001 49.3949 325.65 49.3949C325.125 49.3949 324.714 49.6541 324.418 50.1726C324.122 50.6887 323.974 51.419 323.974 52.3636C323.974 52.9934 324.041 53.5284 324.173 53.9688C324.306 54.4091 324.496 54.7441 324.745 54.9737C324.996 55.2034 325.298 55.3182 325.65 55.3182Z" fill="#566676"/>
<rect x="12" y="70" width="317" height="2" rx="1" fill="#D9D9D9"/>
<rect x="12" y="70" width="158.5" height="2" rx="1" fill="#2288F4"/>
<circle cx="170" cy="71" r="3" fill="#FCB53D"/>
<path d="M14.8555 89.0795C14.4274 89.0795 14.0629 88.9631 13.7617 88.7301C13.4606 88.4953 13.2305 88.1553 13.0714 87.7102C12.9123 87.2633 12.8327 86.7235 12.8327 86.0909C12.8327 85.4621 12.9123 84.9252 13.0714 84.4801C13.2324 84.0331 13.4634 83.6922 13.7646 83.4574C14.0676 83.2206 14.4312 83.1023 14.8555 83.1023C15.2797 83.1023 15.6424 83.2206 15.9435 83.4574C16.2466 83.6922 16.4776 84.0331 16.6367 84.4801C16.7977 84.9252 16.8782 85.4621 16.8782 86.0909C16.8782 86.7235 16.7987 87.2633 16.6396 87.7102C16.4805 88.1553 16.2504 88.4953 15.9492 88.7301C15.6481 88.9631 15.2835 89.0795 14.8555 89.0795ZM14.8555 88.4545C15.2797 88.4545 15.6093 88.25 15.8441 87.8409C16.079 87.4318 16.1964 86.8485 16.1964 86.0909C16.1964 85.5871 16.1424 85.1581 16.0344 84.804C15.9284 84.4498 15.775 84.1799 15.5742 83.9943C15.3754 83.8087 15.1358 83.7159 14.8555 83.7159C14.435 83.7159 14.1064 83.9233 13.8697 84.3381C13.6329 84.7509 13.5146 85.3352 13.5146 86.0909C13.5146 86.5947 13.5676 87.0227 13.6737 87.375C13.7797 87.7273 13.9322 87.9953 14.131 88.179C14.3318 88.3627 14.5733 88.4545 14.8555 88.4545ZM18.4577 88.2557C18.3176 88.2557 18.1973 88.2055 18.0969 88.1051C17.9966 88.0047 17.9464 87.8845 17.9464 87.7443C17.9464 87.6042 17.9966 87.4839 18.0969 87.3835C18.1973 87.2831 18.3176 87.233 18.4577 87.233C18.5979 87.233 18.7182 87.2831 18.8185 87.3835C18.9189 87.4839 18.9691 87.6042 18.9691 87.7443C18.9691 87.8371 18.9454 87.9223 18.8981 88C18.8526 88.0777 18.7911 88.1402 18.7134 88.1875C18.6377 88.233 18.5524 88.2557 18.4577 88.2557ZM18.4577 85.3125C18.3176 85.3125 18.1973 85.2623 18.0969 85.1619C17.9966 85.0616 17.9464 84.9413 17.9464 84.8011C17.9464 84.661 17.9966 84.5407 18.0969 84.4403C18.1973 84.34 18.3176 84.2898 18.4577 84.2898C18.5979 84.2898 18.7182 84.34 18.8185 84.4403C18.9189 84.5407 18.9691 84.661 18.9691 84.8011C18.9691 84.8939 18.9454 84.9792 18.8981 85.0568C18.8526 85.1345 18.7911 85.197 18.7134 85.2443C18.6377 85.2898 18.5524 85.3125 18.4577 85.3125ZM22.1268 89.0795C21.7518 89.0795 21.4175 89.0152 21.1239 88.8864C20.8323 88.7576 20.6003 88.5786 20.4279 88.3494C20.2575 88.1184 20.1647 87.8504 20.1495 87.5455H20.8654C20.8806 87.733 20.945 87.8949 21.0586 88.0312C21.1722 88.1657 21.3209 88.2699 21.5046 88.3438C21.6883 88.4176 21.8919 88.4545 22.1154 88.4545C22.3654 88.4545 22.587 88.411 22.7802 88.3239C22.9734 88.2367 23.1249 88.1155 23.2347 87.9602C23.3446 87.8049 23.3995 87.625 23.3995 87.4205C23.3995 87.2064 23.3465 87.018 23.2404 86.8551C23.1344 86.6903 22.979 86.5616 22.7745 86.4688C22.57 86.3759 22.32 86.3295 22.0245 86.3295H21.5586V85.7045H22.0245C22.2556 85.7045 22.4582 85.6629 22.6325 85.5795C22.8086 85.4962 22.9459 85.3788 23.0444 85.2273C23.1448 85.0758 23.195 84.8977 23.195 84.6932C23.195 84.4962 23.1514 84.3248 23.0643 84.179C22.9772 84.0331 22.854 83.9195 22.695 83.8381C22.5378 83.7566 22.3522 83.7159 22.1381 83.7159C21.9374 83.7159 21.748 83.7528 21.57 83.8267C21.3938 83.8987 21.2499 84.0038 21.1381 84.142C21.0264 84.2784 20.9658 84.4432 20.9563 84.6364H20.2745C20.2859 84.3314 20.3777 84.0644 20.5501 83.8352C20.7224 83.6042 20.9478 83.4242 21.2262 83.2955C21.5065 83.1667 21.8143 83.1023 22.1495 83.1023C22.5094 83.1023 22.8181 83.1752 23.0756 83.321C23.3332 83.465 23.5311 83.6553 23.6694 83.892C23.8076 84.1288 23.8768 84.3845 23.8768 84.6591C23.8768 84.9867 23.7906 85.2661 23.6183 85.4972C23.4478 85.7282 23.2158 85.8883 22.9222 85.9773V86.0227C23.2897 86.0833 23.5766 86.2396 23.783 86.4915C23.9895 86.7415 24.0927 87.0511 24.0927 87.4205C24.0927 87.7367 24.0065 88.0208 23.8342 88.2727C23.6637 88.5227 23.4308 88.7197 23.1353 88.8636C22.8398 89.0076 22.5037 89.0795 22.1268 89.0795ZM27.1864 89.0795C26.9478 89.0758 26.7092 89.0303 26.4705 88.9432C26.2319 88.8561 26.0141 88.7093 25.8171 88.5028C25.6201 88.2945 25.462 88.0133 25.3427 87.6591C25.2234 87.303 25.1637 86.8561 25.1637 86.3182C25.1637 85.803 25.212 85.3466 25.3086 84.9489C25.4052 84.5492 25.5453 84.2131 25.729 83.9403C25.9128 83.6657 26.1344 83.4574 26.3938 83.3153C26.6552 83.1733 26.9497 83.1023 27.2773 83.1023C27.6031 83.1023 27.8929 83.1676 28.1467 83.2983C28.4023 83.4271 28.6107 83.607 28.7717 83.8381C28.9326 84.0691 29.0368 84.3352 29.0842 84.6364H28.391C28.3266 84.375 28.2016 84.1581 28.016 83.9858C27.8304 83.8134 27.5842 83.7273 27.2773 83.7273C26.8266 83.7273 26.4715 83.9233 26.212 84.3153C25.9544 84.7074 25.8247 85.2576 25.8228 85.9659H25.8683C25.9743 85.8049 26.1003 85.6676 26.2461 85.554C26.3938 85.4384 26.5567 85.3494 26.7347 85.2869C26.9128 85.2244 27.1012 85.1932 27.3001 85.1932C27.6334 85.1932 27.9383 85.2765 28.2148 85.4432C28.4914 85.608 28.7129 85.8362 28.8796 86.1278C29.0463 86.4176 29.1296 86.75 29.1296 87.125C29.1296 87.4848 29.0491 87.8144 28.8881 88.1136C28.7272 88.411 28.5008 88.6477 28.2092 88.8239C27.9194 88.9981 27.5785 89.0833 27.1864 89.0795ZM27.1864 88.4545C27.4251 88.4545 27.6391 88.3949 27.8285 88.2756C28.0198 88.1562 28.1703 87.9962 28.2802 87.7955C28.3919 87.5947 28.4478 87.3712 28.4478 87.125C28.4478 86.8845 28.3938 86.6657 28.2859 86.4688C28.1798 86.2699 28.033 86.1117 27.8455 85.9943C27.6599 85.8769 27.4478 85.8182 27.2092 85.8182C27.0292 85.8182 26.8616 85.8542 26.7063 85.9261C26.551 85.9962 26.4147 86.0928 26.2972 86.2159C26.1817 86.339 26.0908 86.4801 26.0245 86.6392C25.9582 86.7964 25.9251 86.9621 25.9251 87.1364C25.9251 87.3674 25.979 87.5833 26.087 87.7841C26.1969 87.9848 26.3465 88.1468 26.5359 88.2699C26.7272 88.393 26.944 88.4545 27.1864 88.4545Z" fill="#7F7575"/>
<path d="M310.559 85.7784V86.4034H308.013V85.7784H310.559ZM313.625 89.0795C313.197 89.0795 312.832 88.9631 312.531 88.7301C312.23 88.4953 312 88.1553 311.841 87.7102C311.682 87.2633 311.602 86.7235 311.602 86.0909C311.602 85.4621 311.682 84.9252 311.841 84.4801C312.002 84.0331 312.233 83.6922 312.534 83.4574C312.837 83.2206 313.201 83.1023 313.625 83.1023C314.049 83.1023 314.412 83.2206 314.713 83.4574C315.016 83.6922 315.247 84.0331 315.406 84.4801C315.567 84.9252 315.648 85.4621 315.648 86.0909C315.648 86.7235 315.568 87.2633 315.409 87.7102C315.25 88.1553 315.02 88.4953 314.719 88.7301C314.418 88.9631 314.053 89.0795 313.625 89.0795ZM313.625 88.4545C314.049 88.4545 314.379 88.25 314.614 87.8409C314.848 87.4318 314.966 86.8485 314.966 86.0909C314.966 85.5871 314.912 85.1581 314.804 84.804C314.698 84.4498 314.545 84.1799 314.344 83.9943C314.145 83.8087 313.905 83.7159 313.625 83.7159C313.205 83.7159 312.876 83.9233 312.639 84.3381C312.402 84.7509 312.284 85.3352 312.284 86.0909C312.284 86.5947 312.337 87.0227 312.443 87.375C312.549 87.7273 312.702 87.9953 312.901 88.179C313.101 88.3627 313.343 88.4545 313.625 88.4545ZM317.227 88.2557C317.087 88.2557 316.967 88.2055 316.866 88.1051C316.766 88.0047 316.716 87.8845 316.716 87.7443C316.716 87.6042 316.766 87.4839 316.866 87.3835C316.967 87.2831 317.087 87.233 317.227 87.233C317.367 87.233 317.488 87.2831 317.588 87.3835C317.688 87.4839 317.739 87.6042 317.739 87.7443C317.739 87.8371 317.715 87.9223 317.668 88C317.622 88.0777 317.561 88.1402 317.483 88.1875C317.407 88.233 317.322 88.2557 317.227 88.2557ZM317.227 85.3125C317.087 85.3125 316.967 85.2623 316.866 85.1619C316.766 85.0616 316.716 84.9413 316.716 84.8011C316.716 84.661 316.766 84.5407 316.866 84.4403C316.967 84.34 317.087 84.2898 317.227 84.2898C317.367 84.2898 317.488 84.34 317.588 84.4403C317.688 84.5407 317.739 84.661 317.739 84.8011C317.739 84.8939 317.715 84.9792 317.668 85.0568C317.622 85.1345 317.561 85.197 317.483 85.2443C317.407 85.2898 317.322 85.3125 317.227 85.3125ZM320.896 89.0795C320.521 89.0795 320.187 89.0152 319.893 88.8864C319.602 88.7576 319.37 88.5786 319.197 88.3494C319.027 88.1184 318.934 87.8504 318.919 87.5455H319.635C319.65 87.733 319.714 87.8949 319.828 88.0312C319.942 88.1657 320.09 88.2699 320.274 88.3438C320.458 88.4176 320.661 88.4545 320.885 88.4545C321.135 88.4545 321.357 88.411 321.55 88.3239C321.743 88.2367 321.894 88.1155 322.004 87.9602C322.114 87.8049 322.169 87.625 322.169 87.4205C322.169 87.2064 322.116 87.018 322.01 86.8551C321.904 86.6903 321.749 86.5616 321.544 86.4688C321.339 86.3759 321.089 86.3295 320.794 86.3295H320.328V85.7045H320.794C321.025 85.7045 321.228 85.6629 321.402 85.5795C321.578 85.4962 321.715 85.3788 321.814 85.2273C321.914 85.0758 321.964 84.8977 321.964 84.6932C321.964 84.4962 321.921 84.3248 321.834 84.179C321.747 84.0331 321.624 83.9195 321.464 83.8381C321.307 83.7566 321.122 83.7159 320.908 83.7159C320.707 83.7159 320.518 83.7528 320.339 83.8267C320.163 83.8987 320.019 84.0038 319.908 84.142C319.796 84.2784 319.735 84.4432 319.726 84.6364H319.044C319.055 84.3314 319.147 84.0644 319.32 83.8352C319.492 83.6042 319.717 83.4242 319.996 83.2955C320.276 83.1667 320.584 83.1023 320.919 83.1023C321.279 83.1023 321.588 83.1752 321.845 83.321C322.103 83.465 322.301 83.6553 322.439 83.892C322.577 84.1288 322.646 84.3845 322.646 84.6591C322.646 84.9867 322.56 85.2661 322.388 85.4972C322.217 85.7282 321.985 85.8883 321.692 85.9773V86.0227C322.059 86.0833 322.346 86.2396 322.553 86.4915C322.759 86.7415 322.862 87.0511 322.862 87.4205C322.862 87.7367 322.776 88.0208 322.604 88.2727C322.433 88.5227 322.2 88.7197 321.905 88.8636C321.609 89.0076 321.273 89.0795 320.896 89.0795ZM323.888 87.8068V87.2273L326.445 83.1818H326.865V84.0795H326.581L324.649 87.1364V87.1818H328.092V87.8068H323.888ZM326.626 89V87.6307V87.3608V83.1818H327.297V89H326.626Z" fill="#7F7575"/>
<circle cx="172" cy="97" r="12" fill="#2288F4"/>
<g clip-path="url(#clip0_59_515)">
<path d="M168.5 92.9167H169.667V101.083H168.5V92.9167ZM174.333 92.9167H175.5V101.083H174.333V92.9167Z" fill="white"/>
</g>
<defs>
<clipPath id="clip0_59_515">
<rect width="14" height="14" fill="white" transform="translate(165 90)"/>
</clipPath>
</defs>
</svg>
